<svg xmlns="http://www.w3.org/2000/svg" width="18" height="25" viewBox="0 0 18 25">
    <path fill="#FFF" fill-rule="evenodd" d="M3.225 25v-3.552h8.914c1.172 0 1.661-.586 1.661-1.825v-4.17h-.293c-.75 1.074-2.215 2.476-5.114 2.476-4.56 0-8.013-3.78-8.013-8.994C.38 3.85 3.767.006 8.36.006c3.095 0 4.495 1.727 5.212 2.574h.293V.43h3.779v19.454c0 3.584-2.28 5.116-5.473 5.116H3.225zm5.852-10.688c2.736 0 4.82-2.151 4.82-5.345 0-3.095-1.986-5.344-4.788-5.344-2.703 0-4.82 2.118-4.82 5.344 0 3.161 2.084 5.345 4.788 5.345z"/>
</svg>
